<svg t="1695562060720" class="icon" viewBox="0 0 1024 1024" version="1.1" xmlns="http://www.w3.org/2000/svg" p-id="20880" width="200" height="200"><path d="M512 256c-139.946667 0-256 116.053333-256 256s116.053333 256 256 256 256-116.053333 256-256-116.053333-256-256-256z m17.066667 460.8c0 10.24-6.826667 17.066667-17.066667 17.066667-122.88 0-221.866667-98.986667-221.866667-221.866667s98.986667-221.866667 221.866667-221.866667c10.24 0 17.066667 6.826667 17.066667 17.066667v409.6z" fill="#89b4fa" p-id="20881"></path><path d="M1003.52 501.76l-133.12-136.533333V170.666667c0-10.24-6.826667-17.066667-17.066667-17.066667h-194.56l-136.533333-133.12c-6.826667-6.826667-17.066667-6.826667-23.893333 0l-136.533334 133.12H170.666667c-10.24 0-17.066667 6.826667-17.066667 17.066667v194.56l-133.12 136.533333c-6.826667 6.826667-6.826667 17.066667 0 23.893333l133.12 136.533334V853.333333c0 10.24 6.826667 17.066667 17.066667 17.066667h194.56l136.533333 133.12c3.413333 3.413333 6.826667 3.413333 10.24 3.413333s10.24 0 10.24-3.413333l136.533333-133.12H853.333333c10.24 0 17.066667-6.826667 17.066667-17.066667v-194.56l133.12-136.533333c3.413333-3.413333 3.413333-17.066667 0-20.48zM512 802.133333c-160.426667 0-290.133333-129.706667-290.133333-290.133333s129.706667-290.133333 290.133333-290.133333 290.133333 129.706667 290.133333 290.133333-129.706667 290.133333-290.133333 290.133333z" fill="#89b4fa" p-id="20882"></path></svg>
