<svg t="1695562140812" class="icon" viewBox="0 0 1024 1024" version="1.1" xmlns="http://www.w3.org/2000/svg" p-id="21996" width="200" height="200"><path d="M128 896a85.333333 85.333333 0 0 1-85.333333-85.333333V213.333333a85.333333 85.333333 0 0 1 85.333333-85.333333h768a85.333333 85.333333 0 0 1 85.333333 85.333333v597.333334a85.333333 85.333333 0 0 1-85.333333 85.333333H128zM896 213.333333H128v597.333334h768V213.333333zM391.850667 332.288C412.757333 311.722667 438.613333 298.666667 469.333333 298.666667h85.333334c30.72 0 56.618667 13.056 77.482666 33.621333 3.072 2.986667 5.888 6.058667 8.448 9.045333h25.002667c57.216 0 102.4 48.384 102.4 106.666667v170.666667c0 58.282667-45.184 106.666667-102.4 106.666666H358.4C301.184 725.333333 256 676.949333 256 618.666667v-170.666667C256 389.717333 301.184 341.333333 358.4 341.333333h25.002667c2.56-2.986667 5.376-6.016 8.448-9.045333zM469.333333 384c-5.546667 0-11.392 2.986667-17.578666 9.045333a54.058667 54.058667 0 0 0-8.704 10.922667l-12.032 22.698667H358.4c-8.746667 0-17.066667 8.917333-17.066667 21.333333v170.666667c0 12.416 8.32 21.333333 17.066667 21.333333h307.2c8.746667 0 17.066667-8.917333 17.066667-21.333333v-170.666667c0-12.416-8.32-21.333333-17.066667-21.333333h-72.618667l-12.032-22.698667a54.058667 54.058667 0 0 0-8.704-10.922667C566.058667 386.986667 560.170667 384 554.666667 384h-85.333334z m42.666667 213.333333a85.333333 85.333333 0 1 1 0-170.666666 85.333333 85.333333 0 0 1 0 170.666666z" p-id="21997" fill="#A8FFCA"></path></svg>
