<svg t="1695474963289" class="icon" viewBox="0 0 1024 1024" version="1.1" xmlns="http://www.w3.org/2000/svg" p-id="9085" width="200" height="200"><path d="M554.666667 213.333333v597.333334a42.666667 42.666667 0 0 1-42.666667 42.666666h-25.173333a42.666667 42.666667 0 0 1-29.866667-12.373333l-163.413333-163.413333A128 128 0 0 0 203.093333 640 75.093333 75.093333 0 0 1 128 564.906667v-105.813334A75.093333 75.093333 0 0 1 203.093333 384a128 128 0 0 0 90.453334-37.546667l163.413333-163.413333a42.666667 42.666667 0 0 1 29.866667-12.373333H512a42.666667 42.666667 0 0 1 42.666667 42.666666z m320 261.12h-69.12V405.333333a21.333333 21.333333 0 0 0-21.333334-21.333333h-32.426666a21.333333 21.333333 0 0 0-21.333334 21.333333v69.12H661.333333a21.333333 21.333333 0 0 0-21.333333 21.333334v32.426666a21.333333 21.333333 0 0 0 21.333333 21.333334h69.12v69.12a21.333333 21.333333 0 0 0 21.333334 21.333333h32.426666a21.333333 21.333333 0 0 0 21.333334-21.333333v-69.12h69.12a21.333333 21.333333 0 0 0 21.333333-21.333334v-32.426666a21.333333 21.333333 0 0 0-21.333333-21.333334z" p-id="9086" fill="#1296db"></path></svg>
